<?xml version="1.0" encoding="UTF-8"?>
<svg width="232px" height="90px" viewBox="0 0 232 90" version="1.1" xmlns="http://www.w3.org/2000/svg" xmlns:xlink="http://www.w3.org/1999/xlink">
    <!-- Generator: Sketch 64 (93537) - https://sketch.com -->
    <title>Group 10</title>
    <desc>Created with Sketch.</desc>
    <g id="Page-1" stroke="none" stroke-width="1" fill="none" fill-rule="evenodd">
        <g id="Desktop-HD" transform="translate(-946.000000, -3406.000000)">
            <g id="Awards" transform="translate(264.000000, 3402.000000)">
                <g id="Group-10" transform="translate(660.000000, 0.000000)">
                    <path d="M115.434,43 L117.114,36.952 L116.568,36.952 C115.644,38.632 114.09,39.346 112.662,39.346 L103.632,39.346 C103.632,39.346 108.252,32.374 110.268,29.644 C113.544,25.234 115.35,22.84 115.35,20.068 C115.35,16.246 112.326,13.0539361 108.126,13.0539361 L108.015633,13.0539361 C107.096951,13.0672325 100.742522,13.4313913 100.314,20.95 L100.944,21.076 C102.624,12.508 117.954,16.33 109.512,29.056 L100.23,43 L115.434,43 Z M131.394,43.378 C140.521317,43.378 142.640737,35.8373385 142.691073,28.7309847 L142.692,28.468 C142.692,21.244 140.634,13.054 131.394,13.054 C122.112,13.054 120.054,21.244 120.054,28.468 C120.054,35.65 122.112,43.378 131.394,43.378 Z M131.394,42.832 C127.698,42.832 124.59,40.27 124.59,28.468 C124.59,16.624 127.614,13.6 131.394,13.6 C135.006,13.6 138.156,16.624 138.156,28.468 C138.156,40.27 135.216,42.832 131.394,42.832 Z M161.004,43 L162.684,36.952 L162.138,36.952 C161.214,38.632 159.66,39.346 158.232,39.346 L149.202,39.346 C149.202,39.346 153.822,32.374 155.838,29.644 C159.114,25.234 160.92,22.84 160.92,20.068 C160.92,16.246 157.896,13.0539361 153.696,13.0539361 L153.585633,13.0539361 C152.666951,13.0672325 146.312522,13.4313913 145.884,20.95 L146.514,21.076 C148.194,12.508 163.524,16.33 155.082,29.056 L145.8,43 L161.004,43 Z M177.804,43 L177.804,42.496 L177.575804,42.4952438 C176.157716,42.4832978 174.57,42.2881538 174.57,39.22 L174.57,13.054 L173.184,13.054 L166.716,18.346 L167.052,18.808 C168.606,17.59 170.916,16.12 170.916,19.186 L170.916,39.22 C170.916,42.328 169.194,42.496 167.472,42.496 L167.472,43 L177.804,43 Z" id="2021" fill="#F9FBF9" fill-rule="nonzero"></path>
                    <path d="M76.0405,68 C77.3825,68 78.4385,67.109 78.4385,65.877 C78.4385,64.865 77.5915,64.271 77.0085,64.084 C77.5255,63.842 78.2185,63.182 78.2185,62.335 C78.2185,61.18 77.2065,60.3 75.8975,60.3 L73.3785,60.3 C73.2575,60.3 73.1695,60.399 73.1695,60.509 L73.1695,67.791 C73.1695,67.901 73.2575,68 73.3785,68 L76.0405,68 Z M75.7655,63.534 L74.5885,63.534 L74.5885,61.609 L75.7655,61.609 C76.3265,61.609 76.7115,61.994 76.7115,62.544 C76.7115,63.094 76.3265,63.534 75.7655,63.534 Z M75.9195,66.702 L74.5885,66.702 L74.5885,64.744 L75.7875,64.744 C76.3595,64.744 76.9095,65.151 76.9095,65.701 C76.9095,66.273 76.4695,66.702 75.9195,66.702 Z M87.1425,68 C87.2635,68 87.3515,67.901 87.3515,67.791 L87.3515,66.889 C87.3515,66.779 87.2635,66.68 87.1425,66.68 L83.8865,66.68 L83.8865,64.755 L86.6035,64.755 C86.7135,64.755 86.8125,64.667 86.8125,64.546 L86.8125,63.633 C86.8125,63.523 86.7135,63.424 86.6035,63.424 L83.8865,63.424 L83.8865,61.62 L87.1425,61.62 C87.2635,61.62 87.3515,61.521 87.3515,61.411 L87.3515,60.509 C87.3515,60.399 87.2635,60.3 87.1425,60.3 L82.6655,60.3 C82.5445,60.3 82.4565,60.399 82.4565,60.509 L82.4565,67.791 C82.4565,67.901 82.5445,68 82.6655,68 L87.1425,68 Z M93.4485,68.11 C94.9995,68.11 95.9785,67.065 95.9785,65.932 C95.9785,64.513 94.7465,63.875 93.6795,63.446 C92.7885,63.083 92.3815,62.731 92.3815,62.214 C92.3815,61.862 92.7225,61.444 93.3495,61.444 C93.9545,61.444 94.7905,61.994 94.8785,62.049 C95.0105,62.137 95.1755,62.049 95.2635,61.917 L95.6815,61.29 C95.7585,61.18 95.7255,60.993 95.6155,60.927 C95.3955,60.762 94.5375,60.19 93.4155,60.19 C91.6665,60.19 90.9405,61.323 90.9405,62.302 C90.9405,63.6 91.9745,64.26 93.0085,64.678 C93.9325,65.052 94.4055,65.437 94.4055,65.998 C94.4055,66.471 93.9765,66.845 93.4045,66.845 C92.6895,66.845 91.7985,66.196 91.7435,66.163 C91.6445,66.086 91.4575,66.086 91.3695,66.24 L90.9735,66.922 C90.8745,67.098 90.9295,67.153 91.0285,67.252 C91.2485,67.461 92.0625,68.11 93.4485,68.11 Z M102.1525,68 C102.2625,68 102.3615,67.901 102.3615,67.791 L102.3615,61.62 L104.0445,61.62 C104.1655,61.62 104.2535,61.521 104.2535,61.411 L104.2535,60.509 C104.2535,60.399 104.1655,60.3 104.0445,60.3 L99.2375,60.3 C99.1165,60.3 99.0285,60.399 99.0285,60.509 L99.0285,61.411 C99.0285,61.521 99.1165,61.62 99.2375,61.62 L100.9205,61.62 L100.9205,67.791 C100.9205,67.901 101.0195,68 101.1295,68 L102.1525,68 Z M114.8525,68.11 C116.4035,68.11 117.3825,67.065 117.3825,65.932 C117.3825,64.513 116.1505,63.875 115.0835,63.446 C114.1925,63.083 113.7855,62.731 113.7855,62.214 C113.7855,61.862 114.1265,61.444 114.7535,61.444 C115.3585,61.444 116.1945,61.994 116.2825,62.049 C116.4145,62.137 116.5795,62.049 116.6675,61.917 L117.0855,61.29 C117.1625,61.18 117.1295,60.993 117.0195,60.927 C116.7995,60.762 115.9415,60.19 114.8195,60.19 C113.0705,60.19 112.3445,61.323 112.3445,62.302 C112.3445,63.6 113.3785,64.26 114.4125,64.678 C115.3365,65.052 115.8095,65.437 115.8095,65.998 C115.8095,66.471 115.3805,66.845 114.8085,66.845 C114.0935,66.845 113.2025,66.196 113.1475,66.163 C113.0485,66.086 112.8615,66.086 112.7735,66.24 L112.3775,66.922 C112.2785,67.098 112.3335,67.153 112.4325,67.252 C112.6525,67.461 113.4665,68.11 114.8525,68.11 Z M123.5565,68 C123.6665,68 123.7655,67.901 123.7655,67.791 L123.7655,61.62 L125.4485,61.62 C125.5695,61.62 125.6575,61.521 125.6575,61.411 L125.6575,60.509 C125.6575,60.399 125.5695,60.3 125.4485,60.3 L120.6415,60.3 C120.5205,60.3 120.4325,60.399 120.4325,60.509 L120.4325,61.411 C120.4325,61.521 120.5205,61.62 120.6415,61.62 L122.3245,61.62 L122.3245,67.791 C122.3245,67.901 122.4235,68 122.5335,68 L123.5565,68 Z M133.9875,68 C134.1085,68 134.1965,67.901 134.1965,67.791 L134.1965,66.889 C134.1965,66.779 134.1085,66.68 133.9875,66.68 L130.7315,66.68 L130.7315,64.755 L133.4485,64.755 C133.5585,64.755 133.6575,64.667 133.6575,64.546 L133.6575,63.633 C133.6575,63.523 133.5585,63.424 133.4485,63.424 L130.7315,63.424 L130.7315,61.62 L133.9875,61.62 C134.1085,61.62 134.1965,61.521 134.1965,61.411 L134.1965,60.509 C134.1965,60.399 134.1085,60.3 133.9875,60.3 L129.5105,60.3 C129.3895,60.3 129.3015,60.399 129.3015,60.509 L129.3015,67.791 C129.3015,67.901 129.3895,68 129.5105,68 L133.9875,68 Z M138.4125,68 C138.5885,68 138.6875,67.89 138.7315,67.78 L139.2705,66.592 L142.5595,66.592 L143.0985,67.78 C143.1755,67.934 143.2525,68 143.4175,68 L144.3745,68 C144.5395,68 144.6275,67.857 144.5615,67.714 L141.1735,60.311 C141.1405,60.245 141.0965,60.19 140.9865,60.19 L140.8765,60.19 C140.7775,60.19 140.7225,60.245 140.6895,60.311 L137.2685,67.714 C137.2025,67.857 137.2905,68 137.4555,68 L138.4125,68 Z M142.0205,65.371 L139.8095,65.371 L140.8875,62.951 L140.9205,62.951 L142.0205,65.371 Z M149.2945,68 C149.4375,68 149.5585,67.879 149.5585,67.736 L149.5585,64.381 L152.4295,67.923 C152.4515,67.956 152.5175,68 152.6275,68 L153.8265,68 C154.0465,68 154.1345,67.758 154.0245,67.615 L150.9445,63.93 L153.8155,60.696 C153.9585,60.531 153.8485,60.3 153.6395,60.3 L152.5395,60.3 C152.4405,60.3 152.3745,60.355 152.3305,60.41 L149.5585,63.534 L149.5585,60.564 C149.5585,60.421 149.4375,60.3 149.2945,60.3 L148.3265,60.3 C148.1725,60.3 148.0625,60.421 148.0625,60.564 L148.0625,67.736 C148.0625,67.879 148.1725,68 148.3265,68 L149.2945,68 Z M158.9665,68 C159.0875,68 159.1755,67.901 159.1755,67.791 L159.1755,64.755 L162.7615,64.755 L162.7615,67.791 C162.7615,67.901 162.8495,68 162.9705,68 L163.9825,68 C164.0925,68 164.1915,67.901 164.1915,67.791 L164.1915,60.509 C164.1915,60.399 164.0925,60.3 163.9825,60.3 L162.9705,60.3 C162.8495,60.3 162.7615,60.399 162.7615,60.509 L162.7615,63.424 L159.1755,63.424 L159.1755,60.509 C159.1755,60.399 159.0875,60.3 158.9665,60.3 L157.9435,60.3 C157.8335,60.3 157.7345,60.399 157.7345,60.509 L157.7345,67.791 C157.7345,67.901 157.8335,68 157.9435,68 L158.9665,68 Z M172.0925,68.11 C174.2925,68.11 176.0525,66.361 176.0525,64.161 C176.0525,61.961 174.2925,60.19 172.0925,60.19 C169.8925,60.19 168.1435,61.961 168.1435,64.161 C168.1435,66.361 169.8925,68.11 172.0925,68.11 Z M172.0925,66.68 C170.7065,66.68 169.5735,65.547 169.5735,64.161 C169.5735,62.775 170.7065,61.62 172.0925,61.62 C173.4785,61.62 174.6225,62.775 174.6225,64.161 C174.6225,65.547 173.4785,66.68 172.0925,66.68 Z M182.9415,68.11 C184.6795,68.11 186.0105,66.757 186.0105,65.085 L186.0105,60.509 C186.0105,60.399 185.9115,60.3 185.8015,60.3 L184.7565,60.3 C184.6355,60.3 184.5475,60.399 184.5475,60.509 L184.5475,65.019 C184.5475,65.943 183.8985,66.68 182.9415,66.68 C181.9845,66.68 181.3465,65.943 181.3465,65.008 L181.3465,60.509 C181.3465,60.399 181.2585,60.3 181.1375,60.3 L180.0925,60.3 C179.9825,60.3 179.8835,60.399 179.8835,60.509 L179.8835,65.085 C179.8835,66.757 181.2145,68.11 182.9415,68.11 Z M192.4265,68.11 C193.9775,68.11 194.9565,67.065 194.9565,65.932 C194.9565,64.513 193.7245,63.875 192.6575,63.446 C191.7665,63.083 191.3595,62.731 191.3595,62.214 C191.3595,61.862 191.7005,61.444 192.3275,61.444 C192.9325,61.444 193.7685,61.994 193.8565,62.049 C193.9885,62.137 194.1535,62.049 194.2415,61.917 L194.6595,61.29 C194.7365,61.18 194.7035,60.993 194.5935,60.927 C194.3735,60.762 193.5155,60.19 192.3935,60.19 C190.6445,60.19 189.9185,61.323 189.9185,62.302 C189.9185,63.6 190.9525,64.26 191.9865,64.678 C192.9105,65.052 193.3835,65.437 193.3835,65.998 C193.3835,66.471 192.9545,66.845 192.3825,66.845 C191.6675,66.845 190.7765,66.196 190.7215,66.163 C190.6225,66.086 190.4355,66.086 190.3475,66.24 L189.9515,66.922 C189.8525,67.098 189.9075,67.153 190.0065,67.252 C190.2265,67.461 191.0405,68.11 192.4265,68.11 Z M203.5505,68 C203.6715,68 203.7595,67.901 203.7595,67.791 L203.7595,66.889 C203.7595,66.779 203.6715,66.68 203.5505,66.68 L200.2945,66.68 L200.2945,64.755 L203.0115,64.755 C203.1215,64.755 203.2205,64.667 203.2205,64.546 L203.2205,63.633 C203.2205,63.523 203.1215,63.424 203.0115,63.424 L200.2945,63.424 L200.2945,61.62 L203.5505,61.62 C203.6715,61.62 203.7595,61.521 203.7595,61.411 L203.7595,60.509 C203.7595,60.399 203.6715,60.3 203.5505,60.3 L199.0735,60.3 C198.9525,60.3 198.8645,60.399 198.8645,60.509 L198.8645,67.791 C198.8645,67.901 198.9525,68 199.0735,68 L203.5505,68 Z" id="BESTSTEAKHOUSE" fill="#F9FBF9" fill-rule="nonzero" opacity="0.483654204"></path>
                    <g id="Group-18" opacity="0.21" transform="translate(45.178571, 49.047848) rotate(30.000000) translate(-45.178571, -49.047848) translate(16.178571, 10.047848)" fill="#FFFFFF" fill-rule="nonzero">
                        <path d="M45.2038288,59.9747619 C44.5547812,63.5238095 47.344305,70.1247619 57.4390669,71.2985714 C57.3418595,70.7819482 57.2033189,70.2739661 57.0247812,69.7795238 C55.1604955,64.3247619 50.7828764,61.3833333 45.2038288,59.9747619 Z" id="Path"></path>
                        <path d="M43.6295431,67.6390476 C43.4500193,63.6480952 40.4809717,57.972381 33.2033526,55.2104762 C31.5462098,59.3947619 34.8604955,65.8438095 43.6295431,67.6390476 Z" id="Path"></path>
                        <path d="M6.52335263,16.8614286 C9.36811453,14.0028571 10.6662098,7.47095238 7.03430501,-4.36983782e-13 C4.4795431,2.23714286 1.41382882,9.74952381 6.52335263,16.8614286 Z" id="Path"></path>
                        <path d="M28.8119241,59.6709524 C30.1928764,55.3071429 29.1571622,49.7280952 24.0890669,44.8395238 C21.1476383,47.9604762 21.3685907,54.8652381 28.8119241,59.6709524 Z" id="Path"></path>
                        <path d="M17.9990669,34.2614286 C15.0852574,36.1395238 12.8895431,42.1190476 18.1647812,48.7614286 C20.0704955,46.2342857 21.7552574,40.7933333 17.9990669,34.2614286 Z" id="Path"></path>
                        <path d="M14.3809717,23.4347619 C11.094305,24.94 8.74668596,30.5466667 12.3095431,37.2442857 C15.3062098,34.5790476 16.8804955,29.5938095 14.3809717,23.4347619 Z" id="Path"></path>
                        <path d="M11.9090669,13.5195238 C9.63049549,14.2652381 6.08144787,18.1457143 8.48430501,25.4371429 C11.1771622,23.7661905 13.5662098,19.6233333 11.9090669,13.5195238 Z" id="Path"></path>
                        <path d="M39.3624002,76.0214286 C45.7838288,79.0042857 52.6885907,78.6452381 56.5552574,73.4804762 C56.8780966,73.0498061 57.1557501,72.5870502 57.3838288,72.0995238 C51.3904955,71.1604762 42.6490669,71.1052381 39.3624002,76.0214286 Z" id="Path"></path>
                        <path d="M43.1185907,69.1028571 C37.8571622,66.5757143 29.5714479,63.5790476 24.7795431,66.9761905 C31.5600193,73.8809524 39.7490669,73.1628571 43.1185907,69.1028571 Z" id="Path"></path>
                        <path d="M11.3704955,53.6914286 C15.5133526,61.6180952 23.6885907,63.6480952 28.1628764,60.4028571 C23.854305,56.7433333 16.7009717,51.7442857 11.3704955,53.6914286 Z" id="Path"></path>
                        <path d="M15.7619241,49.7833333 C16.2291132,49.7621147 16.6923898,49.6879904 17.1428764,49.562381 C14.3809717,45.0466667 9.67192406,38.9566667 4.43811453,39.4952381 C5.90192406,45.6266667 10.2381145,50.17 15.7619241,49.7833333 Z" id="Path"></path>
                        <path d="M11.0528764,37.3685714 C9.14716215,32.6042857 5.3495431,26.5280952 0.378114534,26.5280952 C1.44144787,34.247619 6.70287644,37.9485714 11.0528764,37.3685714 Z" id="Path"></path>
                        <path d="M7.13097168,25.5890476 C6.48192406,21.0042857 4.36906691,15.2042857 0.0328764383,14.4033333 C-0.436647371,22.0538095 4.23097168,25.2852381 7.13097168,25.5890476 Z" id="Path"></path>
                    </g>
                    <g id="Group-17" opacity="0.21" transform="translate(231.644521, 48.543924) rotate(-30.000000) translate(-231.644521, -48.543924) translate(203.144521, 10.043924)" fill="#FFFFFF" fill-rule="nonzero">
                        <path d="M12.0242857,58.9135714 C6.59571429,60.2707143 2.23928571,63.1885714 0.407142857,68.5492857 C0.231683418,69.0352031 0.0955314697,69.5344269 -4.89208674e-12,70.0421429 C9.92071429,68.8885714 12.6621429,62.4014286 12.0242857,58.9135714 Z" id="Path"></path>
                        <path d="M13.5714286,66.4457143 C22.1892857,64.6814286 25.4464286,58.3028571 23.8178571,54.2314286 C16.6657143,56.9728571 13.8157143,62.5235714 13.5714286,66.4457143 Z" id="Path"></path>
                        <path d="M49.5357143,2.54019028e-13 C45.9664286,7.34214286 47.2421429,13.8292857 50.0378571,16.5435714 C55.0592857,9.55428571 52.0464286,2.17142857 49.5357143,2.54019028e-13 Z" id="Path"></path>
                        <path d="M28.1335714,58.615 C35.4485714,53.96 35.6657143,47.1742857 32.775,44.0392857 C27.7942857,48.7757143 26.7357143,54.2585714 28.1335714,58.615 Z" id="Path"></path>
                        <path d="M38.76,33.6435714 C35.0685714,40.0628571 36.7242857,45.41 38.5971429,47.8935714 C43.7814286,41.3657143 41.6235714,35.5435714 38.76,33.6435714 Z" id="Path"></path>
                        <path d="M44.3378571,36.5207143 C47.8392857,29.9928571 45.5321429,24.4828571 42.3021429,22.9492857 C39.8592857,29.0564286 41.4064286,33.9557143 44.3378571,36.5207143 Z" id="Path"></path>
                        <path d="M48.1107143,24.9714286 C50.4721429,17.8057143 46.9842857,13.9921429 44.745,13.2592857 C43.1164286,19.2578571 45.4642857,23.3292857 48.1107143,24.9714286 Z" id="Path"></path>
                        <path d="M0.0542857143,70.8292857 C0.278432027,71.3084065 0.551298421,71.7631838 0.868571429,72.1864286 C4.66857143,77.2757143 11.4542857,77.615 17.765,74.6971429 C14.535,69.8521429 5.94428571,69.9064286 0.0542857143,70.8292857 Z" id="Path"></path>
                        <path d="M14.0735714,67.8842857 C17.385,71.8742857 25.4328571,72.58 32.0964286,65.7942857 C27.3871429,62.4557143 19.2442857,65.4007143 14.0735714,67.8842857 Z" id="Path"></path>
                        <path d="M28.7442857,59.3342857 C33.1414286,62.5235714 41.1485714,60.5285714 45.2471429,52.7385714 C40.0357143,50.825 33.0057143,55.7378571 28.7442857,59.3342857 Z" id="Path"></path>
                        <path d="M39.6014286,48.6807143 C40.0441482,48.8041581 40.4994373,48.8770043 40.9585714,48.8978571 C46.3057143,49.2778571 50.6078571,44.8264286 52.0464286,38.7871429 C46.9435714,38.2578571 42.3157143,44.2428571 39.6014286,48.6807143 Z" id="Path"></path>
                        <path d="M45.5864286,36.6971429 C49.8614286,37.2671429 55.0864286,33.63 56.0771429,26.0028571 C51.1914286,26.0435714 47.4592857,32.015 45.5864286,36.6971429 Z" id="Path"></path>
                        <path d="M49.4407143,25.1207143 C52.2907143,24.8221429 56.8778571,21.6464286 56.4164286,14.1278571 C52.1142857,14.915 50.0785714,20.615 49.4407143,25.1207143 Z" id="Path"></path>
                    </g>
                    <line x1="131" y1="88.5" x2="146" y2="88.5" id="Line-9" stroke="#968677" stroke-linecap="square"></line>
                </g>
            </g>
        </g>
    </g>
</svg>