<?xml version="1.0" encoding="UTF-8"?>
<svg width="512px" height="512px" viewBox="0 0 512 512" version="1.1" xmlns="http://www.w3.org/2000/svg" xmlns:xlink="http://www.w3.org/1999/xlink">
    <!-- Generator: Sketch 64 (93537) - https://sketch.com -->
    <title>Group 2</title>
    <desc>Created with Sketch.</desc>
    <defs>
        <polygon id="path-1" points="0.000996677197 0 190.156042 0 190.156042 49.2065 0.000996677197 49.2065"></polygon>
        <polygon id="path-3" points="0.000996677197 0 190.156042 0 190.156042 49.2065 0.000996677197 49.2065"></polygon>
    </defs>
    <g id="Page-1" stroke="none" stroke-width="1" fill="none" fill-rule="evenodd">
        <g id="Group-2">
            <circle id="Oval" fill="#FFFFFF" cx="256" cy="256" r="256"></circle>
            <g id="Group-7" transform="translate(69.000000, 376.000000)">
                <g id="Group-4">
                    <g id="Group">
                        <g id="Group-3" transform="translate(95.500000, 25.000000) scale(-1, 1) translate(-95.500000, -25.000000) translate(0.000000, 0.000000)">
                            <mask id="mask-2" fill="white">
                                <use xlink:href="#path-1"></use>
                            </mask>
                            <g id="Clip-2"></g>
                            <path d="M56.8414972,17.8025 C14.0242448,11.11 0.000996677197,33.31 0.000996677197,33.31 L13.2169363,35.9925 L16.2692602,49.2075 C42.1978175,25.9725 77.7891602,50.5025 127.994282,41.32 C178.196913,32.1375 190.157039,0 190.157039,0 C143.377995,46.4225 99.6537662,24.485 56.8414972,17.8025" id="Fill-1" fill="#000000" mask="url(#mask-2)"></path>
                        </g>
                    </g>
                    <g id="Group" transform="translate(286.500000, 25.000000) scale(-1, 1) translate(-286.500000, -25.000000) translate(191.000000, 0.000000)">
                        <g id="Group-3" transform="translate(95.500000, 25.000000) scale(-1, 1) translate(-95.500000, -25.000000) translate(0.000000, 0.000000)">
                            <mask id="mask-4" fill="white">
                                <use xlink:href="#path-3"></use>
                            </mask>
                            <g id="Clip-2"></g>
                            <path d="M56.8414972,17.8025 C14.0242448,11.11 0.000996677197,33.31 0.000996677197,33.31 L13.2169363,35.9925 L16.2692602,49.2075 C42.1978175,25.9725 77.7891602,50.5025 127.994282,41.32 C178.196913,32.1375 190.157039,0 190.157039,0 C143.377995,46.4225 99.6537662,24.485 56.8414972,17.8025" id="Fill-1" fill="#000000" mask="url(#mask-4)"></path>
                        </g>
                    </g>
                </g>
            </g>
            <path d="M260.11989,352 C271.452559,352 282.006107,349.938822 291.780533,345.816466 C301.55496,341.69411 309.912803,335.794877 316.854063,328.118766 C323.795322,320.442655 329.17834,311.273967 333.003116,300.612701 C336.827891,289.951436 338.456962,278.081894 337.890329,265.004075 C336.473745,250.789055 333.003116,238.706288 327.47844,228.755773 C321.953764,218.805259 315.154163,210.347322 307.079636,203.381962 C299.00511,196.416602 290.222291,190.588444 280.731181,185.897487 C271.240071,181.20653 261.819791,177.013099 252.470339,173.317194 C245.104104,170.47419 238.021186,167.489036 231.221585,164.361731 C224.421984,161.234427 218.330675,157.609596 212.947657,153.48724 C207.564639,149.364885 203.17323,144.531778 199.77343,138.98792 C196.373629,133.444062 194.390412,126.834077 193.823779,119.157966 C193.257145,110.060353 194.319583,102.242092 197.011092,95.7031826 C199.702601,89.1642732 203.527376,83.8336406 208.485419,79.7112847 C213.443461,75.5889288 219.322283,72.5326994 226.121884,70.5425965 C232.921486,68.5524937 240.004403,67.5574423 247.370638,67.5574423 C258.41999,67.5574423 267.9111,69.5475451 275.843968,73.5277508 C283.776836,77.5079565 290.505608,83.1228896 296.030284,90.37255 C301.55496,97.6222104 306.017198,106.435523 309.416999,116.812488 C312.8168,127.189453 315.508308,138.632544 317.491525,151.141762 L317.491525,151.141762 L324.716102,151.141762 L324.716102,65.4251892 L317.9165,65.4251892 C317.9165,68.8367941 317.491525,72.4616243 316.641575,76.2996798 C315.791625,80.1377353 313.383433,82.0567631 309.416999,82.0567631 C306.300515,82.0567631 302.334081,80.0666602 297.517697,76.0864545 C292.417996,72.3905492 285.901712,68.5524937 277.968843,64.572288 C270.035975,60.5920823 260.11989,58.7441296 248.220588,59.02843 C226.971834,60.1656317 210.11449,66.3491655 197.648554,77.5790316 C185.182619,88.8088977 177.391409,105.937997 174.274925,128.96633 C173.708292,132.093635 173.354146,135.220939 173.212488,138.348244 C173.070829,141.475548 173,144.318552 173,146.877256 C173,163.36668 175.762338,177.2974 181.287014,188.669416 C186.81169,200.041432 193.965437,209.778721 202.748255,217.881283 C211.531073,225.983844 221.093013,232.735979 231.434073,238.137687 C241.775133,243.539395 251.903706,248.514652 261.819791,253.063458 C273.435776,258.465166 283.564349,263.724723 292.205508,268.842131 C300.846668,273.959538 306.300515,280.640598 308.567049,288.88531 C310.550266,296.561421 310.762753,303.668931 309.204511,310.20784 C307.64627,316.746749 304.671444,322.361683 300.280035,327.052639 C295.888626,331.743596 290.36395,335.368426 283.706007,337.92713 C277.048064,340.485833 269.611,341.765185 261.394816,341.765185 C248.07893,341.765185 236.604603,339.419707 226.971834,334.72875 C217.339066,330.037794 209.335369,323.427809 202.960743,314.898797 C196.586117,306.369785 191.698903,296.206045 188.299103,284.407578 C184.899302,272.609111 182.632768,259.460217 181.499501,244.960897 L181.499501,244.960897 L175.124875,244.960897 L175.124875,349.441296 L181.499501,349.441296 C181.782818,346.029691 182.561939,342.049486 183.836864,337.500679 C185.11179,332.951873 187.307494,330.677469 190.423978,330.677469 C193.257145,330.677469 196.161142,331.317145 199.135967,332.596497 C202.110793,333.875849 205.298106,335.510576 208.697906,337.500679 C214.930874,340.627984 222.297109,343.826363 230.79661,347.095818 C239.296112,350.365273 249.070538,352 260.11989,352 Z" id="sEVENty" fill="#000000" fill-rule="nonzero"></path>
        </g>
    </g>
</svg>