<?xml version="1.0" encoding="UTF-8"?>
<svg width="319px" height="86px" viewBox="0 0 319 86" version="1.1" xmlns="http://www.w3.org/2000/svg" xmlns:xlink="http://www.w3.org/1999/xlink">
    <!-- Generator: Sketch 64 (93537) - https://sketch.com -->
    <title>Group 7</title>
    <desc>Created with Sketch.</desc>
    <defs>
        <polygon id="path-1" points="0.00025974026 0 49.5558442 0 49.5558442 12.79369 0.00025974026 12.79369"></polygon>
        <polygon id="path-3" points="0.00025974026 0 49.5558442 0 49.5558442 12.79369 0.00025974026 12.79369"></polygon>
    </defs>
    <g id="Page-1" stroke="none" stroke-width="1" fill="none" fill-rule="evenodd">
        <g id="Desktop-HD" transform="translate(-543.000000, -253.000000)">
            <g id="Group-7" transform="translate(543.722000, 253.000000)">
                <g id="Group-4" transform="translate(107.278000, 0.000000)">
                    <g id="Group">
                        <g id="Group-3" transform="translate(25.000000, 6.500000) scale(-1, 1) translate(-25.000000, -6.500000) ">
                            <mask id="mask-2" fill="white">
                                <use xlink:href="#path-1"></use>
                            </mask>
                            <g id="Clip-2"></g>
                            <path d="M14.8132468,4.62865 C3.65480519,2.8886 0.00025974026,8.6606 0.00025974026,8.6606 L3.44441558,9.35805 L4.23987013,12.79395 C10.997013,6.75285 20.2723377,13.13065 33.3561039,10.7432 C46.4392208,8.35575 49.5561039,0 49.5561039,0 C37.3651948,12.06985 25.9703896,6.3661 14.8132468,4.62865" id="Fill-1" fill="#FFFFFF" mask="url(#mask-2)"></path>
                        </g>
                    </g>
                    <g id="Group" transform="translate(75.000000, 6.500000) scale(-1, 1) translate(-75.000000, -6.500000) translate(50.000000, 0.000000)">
                        <g id="Group-3" transform="translate(25.000000, 6.500000) scale(-1, 1) translate(-25.000000, -6.500000) ">
                            <mask id="mask-4" fill="white">
                                <use xlink:href="#path-3"></use>
                            </mask>
                            <g id="Clip-2"></g>
                            <path d="M14.8132468,4.62865 C3.65480519,2.8886 0.00025974026,8.6606 0.00025974026,8.6606 L3.44441558,9.35805 L4.23987013,12.79395 C10.997013,6.75285 20.2723377,13.13065 33.3561039,10.7432 C46.4392208,8.35575 49.5561039,0 49.5561039,0 C37.3651948,12.06985 25.9703896,6.3661 14.8132468,4.62865" id="Fill-1" fill="#FFFFFF" mask="url(#mask-4)"></path>
                        </g>
                    </g>
                </g>
                <path d="M10.865,84.689 C12.2783333,84.689 13.5945,84.4328333 14.8135,83.9205 C16.0325,83.4081667 17.0748333,82.675 17.9405,81.721 C18.8061667,80.767 19.4775,79.6275 19.9545,78.3025 C20.4315,76.9775 20.6346667,75.5023333 20.564,73.877 C20.3873333,72.1103333 19.9545,70.6086667 19.2655,69.372 C18.5765,68.1353333 17.7285,67.0841667 16.7215,66.2185 C15.7145,65.3528333 14.6191667,64.6285 13.4355,64.0455 C12.2518333,63.4625 11.077,62.9413333 9.911,62.482 C8.99233333,62.1286667 8.109,61.7576667 7.261,61.369 C6.413,60.9803333 5.65333333,60.5298333 4.982,60.0175 C4.31066667,59.5051667 3.763,58.9045 3.339,58.2155 C2.915,57.5265 2.66766667,56.705 2.597,55.751 C2.52633333,54.6203333 2.65883333,53.6486667 2.9945,52.836 C3.33016667,52.0233333 3.80716667,51.3608333 4.4255,50.8485 C5.04383333,50.3361667 5.777,49.9563333 6.625,49.709 C7.473,49.4616667 8.35633333,49.338 9.275,49.338 C10.653,49.338 11.8366667,49.5853333 12.826,50.08 C13.8153333,50.5746667 14.6545,51.2725 15.3435,52.1735 C16.0325,53.0745 16.589,54.1698333 17.013,55.4595 C17.437,56.7491667 17.7726667,58.1713333 18.02,59.726 L18.02,59.726 L18.921,59.726 L18.921,49.073 L18.073,49.073 C18.073,49.497 18.02,49.9475 17.914,50.4245 C17.808,50.9015 17.5076667,51.14 17.013,51.14 C16.6243333,51.14 16.1296667,50.8926667 15.529,50.398 C14.893,49.9386667 14.0803333,49.4616667 13.091,48.967 C12.1016667,48.4723333 10.865,48.2426667 9.381,48.278 C6.731,48.4193333 4.62866667,49.1878333 3.074,50.5835 C1.51933333,51.9791667 0.547666667,54.108 0.159,56.97 C0.0883333333,57.3586667 0.0441666667,57.7473333 0.0265,58.136 C0.00883333333,58.5246667 -2.84217094e-14,58.878 -2.84217094e-14,59.196 C-2.84217094e-14,61.2453333 0.3445,62.9766667 1.0335,64.39 C1.7225,65.8033333 2.61466667,67.0135 3.71,68.0205 C4.80533333,69.0275 5.99783333,69.8666667 7.2875,70.538 C8.57716667,71.2093333 9.84033333,71.8276667 11.077,72.393 C12.5256667,73.0643333 13.7888333,73.718 14.8665,74.354 C15.9441667,74.99 16.6243333,75.8203333 16.907,76.845 C17.1543333,77.799 17.1808333,78.6823333 16.9865,79.495 C16.7921667,80.3076667 16.4211667,81.0055 15.8735,81.5885 C15.3258333,82.1715 14.6368333,82.622 13.8065,82.94 C12.9761667,83.258 12.0486667,83.417 11.024,83.417 C9.36333333,83.417 7.93233333,83.1255 6.731,82.5425 C5.52966667,81.9595 4.5315,81.138 3.7365,80.078 C2.9415,79.018 2.332,77.7548333 1.908,76.2885 C1.484,74.8221667 1.20133333,73.188 1.06,71.386 L1.06,71.386 L0.265,71.386 L0.265,84.371 L1.06,84.371 C1.09533333,83.947 1.1925,83.4523333 1.3515,82.887 C1.5105,82.3216667 1.78433333,82.039 2.173,82.039 C2.52633333,82.039 2.8885,82.1185 3.2595,82.2775 C3.6305,82.4365 4.028,82.6396667 4.452,82.887 C5.22933333,83.2756667 6.148,83.6731667 7.208,84.0795 C8.268,84.4858333 9.487,84.689 10.865,84.689 Z M70.509,84 L70.509,73.559 L69.608,73.559 C69.608,75.9263333 69.3076667,77.746 68.707,79.018 C68.1063333,80.29 67.2936667,81.2175 66.269,81.8005 C65.2443333,82.3835 64.0341667,82.7191667 62.6385,82.8075 C61.2428333,82.8958333 59.7323333,82.94 58.107,82.94 L58.107,82.94 L52.966,82.94 L52.966,66.616 L56.093,66.616 C56.8703333,66.616 57.5593333,66.6778333 58.16,66.8015 C58.7606667,66.9251667 59.273,67.1901667 59.697,67.5965 C60.121,68.0028333 60.4478333,68.6035 60.6775,69.3985 C60.9071667,70.1935 61.0396667,71.2623333 61.075,72.605 L61.075,72.605 L61.923,72.605 L61.923,59.249 L61.075,59.249 C61.0396667,60.733 60.8806667,61.8901667 60.598,62.7205 C60.3153333,63.5508333 59.8913333,64.1603333 59.326,64.549 C58.7606667,64.9376667 58.0628333,65.1673333 57.2325,65.238 C56.4021667,65.3086667 55.4393333,65.344 54.344,65.344 L54.344,65.344 L52.966,65.344 L52.966,49.709 L57.63,49.709 C59.1493333,49.709 60.5715,49.7355 61.8965,49.7885 C63.2215,49.8415 64.4051667,50.1065 65.4475,50.5835 C66.4898333,51.0605 67.3731667,51.8201667 68.0975,52.8625 C68.8218333,53.9048333 69.3253333,55.3976667 69.608,57.341 L69.608,57.341 L70.509,57.341 L70.456,48.649 L43.903,48.649 L43.903,49.55 L46.553,49.55 L46.553,83.099 L43.903,83.099 L43.903,84 L70.509,84 Z M105.826,85.378 L116.214,53.684 C116.532,52.6946667 116.797,51.9173333 117.009,51.352 C117.221,50.7866667 117.468333,50.3715 117.751,50.1065 C118.033667,49.8415 118.404667,49.6825 118.864,49.6295 C119.323333,49.5765 119.977,49.55 120.825,49.55 L121.249,49.55 L121.249,48.649 L111.497,48.649 L111.497,49.55 L112.7955,49.55 C113.237167,49.55 113.661167,49.603 114.0675,49.709 C114.473833,49.815 114.8095,49.9828333 115.0745,50.2125 C115.3395,50.4421667 115.472,50.7866667 115.472,51.246 C115.472,51.4226667 115.454333,51.6435 115.419,51.9085 C115.383667,52.1735 115.295333,52.5886667 115.154,53.154 C115.012667,53.7193333 114.791833,54.4878333 114.4915,55.4595 C114.191167,56.4311667 113.776,57.7296667 113.246,59.355 C112.716,60.9803333 112.062333,62.9766667 111.285,65.344 C110.507667,67.7113333 109.553667,70.5733333 108.423,73.93 L108.423,73.93 L101.056,49.55 L104.448,49.55 L104.448,48.649 L91.41,48.649 L91.41,49.55 L94.219,49.55 L105.826,85.378 Z M167.802,84 L167.802,73.559 L166.901,73.559 C166.901,75.9263333 166.600667,77.746 166,79.018 C165.399333,80.29 164.586667,81.2175 163.562,81.8005 C162.537333,82.3835 161.327167,82.7191667 159.9315,82.8075 C158.535833,82.8958333 157.025333,82.94 155.4,82.94 L155.4,82.94 L150.259,82.94 L150.259,66.616 L153.386,66.616 C154.163333,66.616 154.852333,66.6778333 155.453,66.8015 C156.053667,66.9251667 156.566,67.1901667 156.99,67.5965 C157.414,68.0028333 157.740833,68.6035 157.9705,69.3985 C158.200167,70.1935 158.332667,71.2623333 158.368,72.605 L158.368,72.605 L159.216,72.605 L159.216,59.249 L158.368,59.249 C158.332667,60.733 158.173667,61.8901667 157.891,62.7205 C157.608333,63.5508333 157.184333,64.1603333 156.619,64.549 C156.053667,64.9376667 155.355833,65.1673333 154.5255,65.238 C153.695167,65.3086667 152.732333,65.344 151.637,65.344 L151.637,65.344 L150.259,65.344 L150.259,49.709 L154.923,49.709 C156.442333,49.709 157.8645,49.7355 159.1895,49.7885 C160.5145,49.8415 161.698167,50.1065 162.7405,50.5835 C163.782833,51.0605 164.666167,51.8201667 165.3905,52.8625 C166.114833,53.9048333 166.618333,55.3976667 166.901,57.341 L166.901,57.341 L167.802,57.341 L167.749,48.649 L141.196,48.649 L141.196,49.55 L143.846,49.55 L143.846,83.099 L141.196,83.099 L141.196,84 L167.802,84 Z M217.482,84.265 L217.482795,53.61775 C217.487565,52.64785 217.5138,51.8926 217.5615,51.352 C217.6145,50.7513333 217.747,50.3185 217.959,50.0535 C218.171,49.7885 218.489,49.6383333 218.913,49.603 C219.337,49.5676667 219.902333,49.55 220.609,49.55 L220.609,49.55 L221.828,49.55 L221.828,48.649 L212.235,48.649 L212.235,49.55 L213.658961,49.5508281 C214.244445,49.5546927 214.714958,49.5720833 215.0705,49.603 C215.476833,49.6383333 215.786,49.7885 215.998,50.0535 C216.21,50.3185 216.3425,50.7513333 216.3955,51.352 C216.4485,51.9526667 216.475,52.8183333 216.475,53.949 L216.475,53.949 L216.475,73.877 L201.105,48.649 L190.452,48.649 L190.452,49.55 L194.109,49.55 L194.798,50.239 L194.798,78.435 C194.798,79.601 194.7715,80.4931667 194.7185,81.1115 C194.6655,81.7298333 194.5065,82.1891667 194.2415,82.4895 C193.9765,82.7898333 193.543667,82.9665 192.943,83.0195 C192.342333,83.0725 191.512,83.099 190.452,83.099 L190.452,83.099 L190.452,84 L200.204,84 L200.204,83.099 C199.073333,83.099 198.207667,83.0725 197.607,83.0195 C197.006333,82.9665 196.5735,82.7721667 196.3085,82.4365 C196.0435,82.1008333 195.893333,81.5531667 195.858,80.7935 C195.822667,80.0338333 195.805,78.9473333 195.805,77.534 L195.805,52.783 L214.832,84.265 L217.482,84.265 Z M263.346,84 L263.346,83.099 L259.742,83.099 L259.742,49.55 C261.614667,49.55 263.142833,49.6471667 264.3265,49.8415 C265.510167,50.0358333 266.4465,50.4775 267.1355,51.1665 C267.8245,51.8555 268.310333,52.8448333 268.593,54.1345 C268.875667,55.4241667 269.017,57.1466667 269.017,59.302 L269.017,59.302 L269.865,59.302 C269.829667,57.4646667 269.803167,55.6803333 269.7855,53.949 C269.767833,52.2176667 269.741333,50.451 269.706,48.649 L269.706,48.649 L243.471,48.649 C243.400333,50.451 243.356167,52.2176667 243.3385,53.949 C243.320833,55.6803333 243.276667,57.4646667 243.206,59.302 L243.206,59.302 L244.16,59.302 C244.16,57.288 244.2925,55.6538333 244.5575,54.3995 C244.8225,53.1451667 245.281833,52.1558333 245.9355,51.4315 C246.589167,50.7071667 247.463667,50.2125 248.559,49.9475 C249.654333,49.6825 251.05,49.55 252.746,49.55 L252.746,49.55 L253.488,49.55 L253.488,83.099 L249.725,83.099 L249.725,84 L263.346,84 Z M309.422,84 L309.422,83.099 L306.03,83.099 L306.03,69.902 L312.655,53.207 C312.973,52.4296667 313.246833,51.7936667 313.4765,51.299 C313.706167,50.8043333 313.9535,50.4245 314.2185,50.1595 C314.4835,49.8945 314.775,49.7178333 315.093,49.6295 C315.411,49.5411667 315.817333,49.497 316.312,49.497 L316.312,49.497 L317.425,49.497 L317.425,48.649 L308.044,48.649 L308.044,49.55 L308.15,49.55 C308.326667,49.55 308.521,49.5411667 308.733,49.5235 C308.945,49.5058333 309.174667,49.497 309.422,49.497 C310.058,49.497 310.649833,49.5765 311.1975,49.7355 C311.745167,49.8945 312.019,50.2743333 312.019,50.875 C312.019,51.1223333 311.966,51.4491667 311.86,51.8555 C311.754,52.2618333 311.630333,52.6858333 311.489,53.1275 C311.347667,53.5691667 311.206333,53.9931667 311.065,54.3995 C310.923667,54.8058333 310.8,55.115 310.694,55.327 L310.694,55.327 L305.553,67.888 L298.504,49.55 L301.843,49.55 L301.843,48.649 L289.176,48.649 L289.176,49.55 L291.985,49.55 L300.306,71.121 L300.306,83.099 L296.967,83.099 L296.967,84 L309.422,84 Z" id="sEVENty" fill="#FFFFFF" fill-rule="nonzero"></path>
            </g>
        </g>
    </g>
</svg>