<?xml version="1.0" encoding="UTF-8"?>
<svg width="152px" height="152px" viewBox="0 0 152 152" version="1.1" xmlns="http://www.w3.org/2000/svg" xmlns:xlink="http://www.w3.org/1999/xlink">
    <!-- Generator: Sketch 64 (93537) - https://sketch.com -->
    <title>Group 9</title>
    <desc>Created with Sketch.</desc>
    <defs>
        <polygon id="path-1" points="0.000202597403 0 38.6535584 0 38.6535584 9.8413 0.000202597403 9.8413"></polygon>
        <polygon id="path-3" points="0.000202597403 0 38.6535584 0 38.6535584 9.8413 0.000202597403 9.8413"></polygon>
    </defs>
    <g id="Page-1" stroke="none" stroke-width="1" fill="none" fill-rule="evenodd" opacity="0.4">
        <g id="Desktop-HD" transform="translate(-1209.000000, -3645.000000)">
            <g id="Group-9" transform="translate(1285.000000, 3720.957200) rotate(-61.000000) translate(-1285.000000, -3720.957200) translate(1210.000000, 3645.957200)">
                <g id="Group-44" transform="translate(14.625000, 13.750000)" fill="#968677">
                    <path d="M44.0842014,6.43105556 C43.5091319,4.04959722 44.5688542,2.17320833 46.8487153,1.62293056 C48.4592014,1.23452778 49.6773958,1.70848611 50.4328125,2.79834722 L49.0989236,3.58827778 C48.6779514,2.83772222 48.0182986,2.54119444 47.1223958,2.75702778 C45.7384375,3.09098611 45.0778125,4.28293056 45.4939236,6.00668056 L45.5075347,6.06355556 C45.9236458,7.78730556 46.9692708,8.63897222 48.3187153,8.31327778 C49.4076042,8.05077778 50.1046875,7.25841667 49.8664931,5.97168056 L48.0289931,6.41501389 L47.7358681,5.20168056 L50.9228125,4.43265278 L51.9028125,8.49265278 L50.8367708,8.74980556 L50.2578125,6.84911111 C50.3341319,8.25931944 49.6336458,9.18438889 48.3517708,9.49355556 C46.3217708,9.98355556 44.6339931,8.71043056 44.0842014,6.43105556" id="Fill-1"></path>
                    <path d="M65.3805347,4.092375 L65.3815069,4.057375 C65.4490764,2.26168056 64.7408125,1.21897222 63.3651181,1.16744444 C61.9889375,1.11591667 61.1591458,2.07695833 61.0906042,3.89647222 L61.0896319,3.93098611 C61.0220625,5.72716667 61.7410208,6.79320833 63.1288681,6.84522222 C64.5162292,6.89723611 65.3115069,5.92306944 65.3805347,4.092375 M59.6439375,3.86536111 C59.7348403,1.44015278 61.1353264,-0.0838055556 63.4672014,0.00369444444 C65.7407431,0.08925 66.9642847,1.71140278 66.8733819,4.13661111 C66.7810208,6.59681944 65.3591458,8.08480556 63.0267847,7.99730556 C60.7415764,7.91175 59.5515764,6.32556944 59.6439375,3.86536111" id="Fill-3"></path>
                    <path d="M80.7369306,7.41304861 L80.747625,7.37999306 C81.3027639,5.67082639 80.9060972,4.47499306 79.597,4.04964583 C78.2874167,3.62429861 77.2262361,4.32235417 76.6642917,6.05339583 L76.6535972,6.08645139 C76.0984583,7.79561806 76.4985278,9.01721528 77.8192917,9.44645139 C79.1395694,9.87520139 80.1706111,9.15527083 80.7369306,7.41304861 M75.2808194,5.62853472 C76.0308889,3.32047917 77.7935278,2.2369375 80.012625,2.95784028 C82.1767917,3.66075694 82.9108194,5.55513194 82.16075,7.8631875 C81.3999861,10.2047847 79.6261667,11.2479792 77.4065833,10.5265903 C75.2317222,9.82027083 74.5200556,7.96964583 75.2808194,5.62853472" id="Fill-5"></path>
                    <path d="M90.8007431,15.4557083 C92.1613681,16.3589028 93.2536597,15.9364722 94.1767847,14.5471667 L94.2151875,14.4888333 C95.1835208,13.0314722 95.0717153,11.8925139 93.7888681,11.0408472 L92.8171319,10.3957778 L89.8678958,14.8364028 L90.8007431,15.4557083 Z M92.2965069,8.64966667 L94.4728264,10.0953611 C96.4843542,11.4307083 96.8241458,13.2808472 95.4367847,15.3701528 C94.1009514,17.3811944 92.1574792,17.7987639 90.0876181,16.4245278 L88.0372014,15.0624444 L92.2965069,8.64966667 Z" id="Fill-7"></path>
                    <polygon id="Fill-9" points="111.317792 26.4819722 114.331681 31.324125 113.252514 31.9959306 112.130569 30.1939167 106.674458 33.590375 105.916611 32.3721806 111.372722 28.9757222 110.238139 27.1537778"></polygon>
                    <polygon id="Fill-11" points="118.191014 39.8142014 118.679556 41.1762847 111.429208 43.7755208 110.940667 42.4134375"></polygon>
                    <polygon id="Fill-13" points="121.324146 51.0873125 121.539493 53.3642569 116.814493 55.4516181 115.422271 55.8521736 115.429076 55.9221736 116.869424 56.0320347 121.901646 57.1972431 122.11359 59.4391875 114.447132 60.1634931 114.316368 58.7814792 117.754632 58.4562708 121.018382 58.2652292 121.008174 58.1607153 118.944632 57.7815486 114.105396 56.5512014 114.001368 55.4477292 118.511507 53.3219653 120.473451 52.5038403 120.463729 52.3993264 117.226715 52.8693958 113.788451 53.1941181 113.657688 51.8121042"></polygon>
                    <polygon id="Fill-16" points="121.406979 69.8386597 120.472674 74.9107431 119.256424 74.6866458 119.938924 70.9800486 118.080035 70.6378264 117.606562 73.2078958 116.41316 72.9881736 116.886632 70.4176181 114.775451 70.0287292 114.067187 73.8728958 112.873785 73.6531736 113.833368 68.4435208"></polygon>
                    <path d="M112.234257,81.3693125 L112.162799,82.7231319 C111.302868,82.6098681 110.700576,83.0254931 110.383146,83.7138264 C110.022451,84.4979236 110.151271,85.1094514 110.755021,85.3875069 C111.358771,85.6655625 111.805993,85.2810486 112.707729,84.2713958 C113.715437,83.1431319 114.541826,82.7153542 115.712868,83.2675764 C116.814396,83.7750764 117.223215,85.1449375 116.544604,86.6173681 C115.934535,87.9415347 114.947243,88.5520903 113.803424,88.3586181 L113.839882,87.0529236 C114.57391,87.1603542 115.149951,86.8861875 115.496062,86.1341736 C115.88641,85.2868819 115.624882,84.7682014 115.200993,84.5727847 C114.671618,84.3287569 114.366826,84.4322986 113.389257,85.5226458 C112.432104,86.5969514 111.495854,87.3470208 110.27766,86.7855625 C108.964187,86.1803542 108.640924,84.7088958 109.348215,83.1727847 C109.939326,81.8913958 110.913493,81.1972292 112.234257,81.3693125" id="Fill-18"></path>
                    <polygon id="Fill-20" points="102.823681 105.529618 101.576319 106.584965 96.8629861 105.024063 95.0181944 104.216146 96.3486806 105.535938 99.0465972 108.724826 97.9951389 109.61441 93.02125 103.734896 94.0459722 102.86816 99.3698611 104.554479 101.136875 105.306007 99.8472222 104.089271 96.8255556 100.51684 97.8497917 99.6501042"></polygon>
                    <polygon id="Fill-22" points="85.6028056 111.686215 89.9904444 114.795382 88.5116944 115.490035 86.6761389 114.108507 85.3918333 112.829549 85.2970417 112.873785 85.4511389 114.684062 85.3743333 116.963437 83.8746806 117.668785 84.2932222 112.301632 83.0079444 109.565799 84.3175278 108.950382"></polygon>
                    <path d="M64.1930139,116.168063 L64.2732222,118.593271 C64.2751667,118.651604 64.2411389,118.688063 64.1828056,118.689521 L61.8159306,118.768271 C61.7692639,118.769729 61.7328056,118.735701 61.7313472,118.677368 L61.6511389,116.25216 C61.6496806,116.205493 61.6832222,116.169521 61.7298889,116.167576 L64.1205833,116.088826 C64.1667639,116.087368 64.1915556,116.121396 64.1930139,116.168063" id="Fill-24"></path>
                    <polygon id="Fill-27" points="41.2188194 118.722042 36.4126389 116.856347 36.8598611 115.703778 40.3720139 117.067319 41.0559722 115.305653 38.6200694 114.359681 39.0590278 113.228986 41.4949306 114.174958 42.27125 112.173639 38.6283333 110.759542 39.0672917 109.628847 44.0042361 111.545097"></polygon>
                    <path d="M31.6046111,107.560931 L30.2877361,107.238639 C30.5585,106.415653 30.2619722,105.746278 29.6446111,105.305861 C28.9412083,104.805653 28.3160694,104.818778 27.9305833,105.360792 C27.5450972,105.901833 27.8401667,106.412736 28.6646111,107.487042 C29.5857917,108.686278 29.8531528,109.578292 29.092875,110.626347 C28.3889861,111.614611 26.9671111,111.761903 25.6463472,110.821278 C24.4587778,109.975931 24.0421806,108.891417 24.4446806,107.8035 L25.7207222,108.082042 C25.479125,108.783986 25.6414861,109.400375 26.3162083,109.880653 C27.0764861,110.422181 27.6345417,110.261278 27.9053056,109.880653 C28.2431528,109.405722 28.1979444,109.087319 27.3083611,107.924056 C26.4304444,106.783639 25.8675278,105.724403 26.6453056,104.631625 C27.4843333,103.453292 28.9907917,103.409056 30.3684306,104.390028 C31.5180833,105.208153 32.0187778,106.295097 31.6046111,107.560931" id="Fill-29"></path>
                    <polygon id="Fill-31" points="16.6723472 102.882597 12.9579722 98.5557222 13.9229028 97.727875 15.3049167 99.337875 20.1810972 95.1529444 21.1154028 96.2413472 16.2392222 100.426278 17.6367917 102.05475"></polygon>
                    <path d="M10.2978264,79.0714653 C8.76560417,79.5259792 7.6908125,78.7734792 6.51539583,77.6009792 C5.7658125,76.8372986 5.1576875,76.2632014 4.39692361,76.4887569 C3.79317361,76.6676458 3.40574306,77.2082014 3.66095139,78.0695903 C3.91664583,78.9309792 4.65115972,79.3577847 5.49942361,79.3864653 L5.32199306,80.7169514 C4.12615972,80.7062569 2.91622917,79.9090347 2.47192361,78.4098681 C1.94838194,76.6423681 2.63379861,75.4659792 3.94240972,75.0780625 C5.23984028,74.6935486 6.17657639,75.5962569 7.00977083,76.3954236 C7.85997917,77.2509792 8.46810417,77.8250764 9.26289583,77.7963958 L9.27845139,77.7672292 C9.23275694,77.6957708 8.95372917,76.9996597 8.93039583,76.9213958 L8.02185417,73.8564653 L9.21865972,73.5016042 L10.8237986,78.9159097 L10.2978264,79.0714653 Z" id="Fill-33"></path>
                    <path d="M3.94158333,61.2147083 L3.90658333,61.2156806 C2.12255556,61.2759583 1.15130556,61.8928333 1.19213889,63.1051944 C1.23248611,64.306375 2.23144444,64.8561667 4.03929167,64.7954028 L4.07380556,64.7939444 C5.83498611,64.7346389 6.86408333,64.1046389 6.82373611,62.9039444 C6.78290278,61.7027639 5.71394444,61.1549167 3.94158333,61.2147083 M4.11172222,66.2517917 C1.72102778,66.3324861 0.0745694444,65.2790833 0.00213888889,63.133875 C-0.0693194444,61.0115139 1.47894444,59.8385278 3.86915278,59.7578333 C6.21269444,59.6790833 7.94130556,60.7412361 8.01373611,62.8869306 C8.08568056,65.0209583 6.45526389,66.1730417 4.11172222,66.2517917" id="Fill-35"></path>
                    <path d="M5.85306944,46.35225 L5.81904167,46.3439861 C4.08070833,45.9400278 2.98258333,46.2837083 2.70793056,47.4659306 C2.43570833,48.636 3.25820833,49.4259306 5.019875,49.8357222 L5.05390278,49.8435 C6.769875,50.2421111 7.92730556,49.900375 8.19904167,48.7298194 C8.47126389,47.5592639 7.58022222,46.7532917 5.85306944,46.35225 M4.71216667,51.2614861 C2.38272222,50.7199583 1.06536111,49.2762083 1.55147222,47.1849583 C2.03223611,45.1165556 3.83084722,44.3849583 6.16029167,44.9264861 C8.44452778,45.4573194 9.83869444,46.9307222 9.35306944,49.0219722 C8.869875,51.1015556 6.99640278,51.7918333 4.71216667,51.2614861" id="Fill-38"></path>
                    <polygon id="Fill-40" points="10.1532569 37.6084236 7.07665972 32.7808542 7.92978472 31.1737708 10.4177014 35.5176597 10.8265208 36.5137014 11.2032569 35.4058542 11.8317986 34.2212014 10.3899931 33.4298125 10.6121458 32.0162014 12.4768681 33.0054375 12.9688125 32.0784236 14.0917292 32.6739097 13.5997847 33.6014097 14.9701319 34.3281458 14.3250625 35.5439097 12.9547153 34.8171736 11.1838125 38.1552986"></polygon>
                </g>
                <circle id="Oval" stroke="#968677" cx="75" cy="75" r="70"></circle>
                <circle id="Oval" stroke="#968677" cx="75" cy="75" r="75"></circle>
                <g id="Group-4" transform="translate(36.000000, 71.000000)">
                    <g id="Group">
                        <g id="Group-3" transform="translate(19.500000, 5.000000) scale(-1, 1) translate(-19.500000, -5.000000) ">
                            <mask id="mask-2" fill="white">
                                <use xlink:href="#path-1"></use>
                            </mask>
                            <g id="Clip-2"></g>
                            <path d="M11.5543325,3.5605 C2.85074805,2.222 0.000202597403,6.662 0.000202597403,6.662 L2.68664416,7.1985 L3.3070987,9.8415 C8.57767013,5.1945 15.8124234,10.1005 26.017761,8.264 C36.2225922,6.4275 38.653761,0 38.653761,0 C29.1448519,9.2845 20.2569039,4.897 11.5543325,3.5605" id="Fill-1" fill="#968677" mask="url(#mask-2)"></path>
                        </g>
                    </g>
                    <g id="Group" transform="translate(57.500000, 5.000000) scale(-1, 1) translate(-57.500000, -5.000000) translate(38.000000, 0.000000)">
                        <g id="Group-3" transform="translate(19.500000, 5.000000) scale(-1, 1) translate(-19.500000, -5.000000) ">
                            <mask id="mask-4" fill="white">
                                <use xlink:href="#path-3"></use>
                            </mask>
                            <g id="Clip-2"></g>
                            <path d="M11.5543325,3.5605 C2.85074805,2.222 0.000202597403,6.662 0.000202597403,6.662 L2.68664416,7.1985 L3.3070987,9.8415 C8.57767013,5.1945 15.8124234,10.1005 26.017761,8.264 C36.2225922,6.4275 38.653761,0 38.653761,0 C29.1448519,9.2845 20.2569039,4.897 11.5543325,3.5605" id="Fill-1" fill="#968677" mask="url(#mask-4)"></path>
                        </g>
                    </g>
                </g>
            </g>
        </g>
    </g>
</svg>